<?xml version="1.0" encoding="UTF-8"?>
<svg xmlns="http://www.w3.org/2000/svg" viewBox="0 0 1024 1024">
  <rect width="1024" height="1024" fill="#fff"/>
  <svg x="102" y="102" width="820" height="820" viewBox="828.44 408.44 263.12 263.12">
    <defs>
      <style>.cls-2{fill:#6496ff;}</style>
    </defs>
    <path class="cls-2" d="M1030.15,428.69c-20.3-12.83-44.36-20.25-70.15-20.25h-131.56v20.25h201.7Z"/>
    <path class="cls-2" d="M1070.87,469.16c-4.66-7.25-9.99-14.05-15.97-20.25h-226.46v20.25h242.43Z"/>
    <polygon class="cls-2" points="828.44 489.4 897.52 489.4 908.06 509.62 828.44 509.62 828.44 489.4"/>
    <path class="cls-2" d="M947.46,509.62l-49.94-20.22h183.95c2.7,6.5,4.92,13.24,6.57,20.22h-140.58Z"/>
    <path class="cls-2" d="M914.96,529.87c1.07,6.71,1.07,13.55,0,20.26h-86.52v-20.26h86.52Z"/>
    <path class="cls-2" d="M1091.56,540c0,3.4-.14,6.79-.39,10.13h-93.71l25.03-10.13-25.03-10.13h93.71c.25,3.34.39,6.73.39,10.13Z"/>
    <polygon class="cls-2" points="908.06 570.38 897.52 590.6 828.44 590.6 828.44 570.38 908.06 570.38"/>
    <path class="cls-2" d="M1088.04,570.38c-1.65,6.98-3.87,13.73-6.57,20.22h-183.95l49.94-20.22h140.58Z"/>
    <path class="cls-2" d="M828.44,610.84v20.25h226.46c5.97-6.19,11.31-12.99,15.97-20.25h-242.43Z"/>
    <path class="cls-2" d="M828.44,651.31v20.25h131.56c25.78,0,49.85-7.42,70.15-20.25h-201.7Z"/>
  </svg>
</svg>
