<?xml version="1.0" encoding="UTF-8"?>
<svg xmlns="http://www.w3.org/2000/svg" width="1000" height="700" viewBox="0 0 1000 700">
  <!-- White background -->
  <rect width="1000" height="700" fill="#ffffff"/>

  <!-- Debrief logo centered at top -->
  <g transform="translate(500, 90) scale(0.57) translate(-959.5, -539.5)" fill="#6496ff">
    <path d="M1030.15,428.69c-20.3-12.83-44.36-20.25-70.15-20.25h-131.56v20.25h201.7Z"/>
    <path d="M1070.87,469.16c-4.66-7.25-9.99-14.05-15.97-20.25h-226.46v20.25h242.43Z"/>
    <polygon points="828.44 489.4 897.52 489.4 908.06 509.62 828.44 509.62 828.44 489.4"/>
    <path d="M947.46,509.62l-49.94-20.22h183.95c2.7,6.5,4.92,13.24,6.57,20.22h-140.58Z"/>
    <path d="M914.96,529.87c1.07,6.71,1.07,13.55,0,20.26h-86.52v-20.26h86.52Z"/>
    <path d="M1091.56,540c0,3.4-.14,6.79-.39,10.13h-93.71l25.03-10.13-25.03-10.13h93.71c.25,3.34.39,6.73.39,10.13Z"/>
    <polygon points="908.06 570.38 897.52 590.6 828.44 590.6 828.44 570.38 908.06 570.38"/>
    <path d="M1088.04,570.38c-1.65,6.98-3.87,13.73-6.57,20.22h-183.95l49.94-20.22h140.58Z"/>
    <path d="M828.44,610.84v20.25h226.46c5.97-6.19,11.31-12.99,15.97-20.25h-242.43Z"/>
    <path d="M828.44,651.31v20.25h131.56c25.78,0,49.85-7.42,70.15-20.25h-201.7Z"/>
  </g>

  <!-- Arrow -->
  <g transform="translate(440, 210) scale(4)" fill="none" stroke="#333333" stroke-width="2" stroke-linecap="round" stroke-linejoin="round">
    <path d="M4 12H20M20 12L14 6M20 12L14 18"/>
  </g>
</svg>
